<?xml version="1.0" standalone="no"?>
<!DOCTYPE svg PUBLIC "-//W3C//DTD SVG 20010904//EN"
 "http://www.w3.org/TR/2001/REC-SVG-20010904/DTD/svg10.dtd">
<svg version="1.0" xmlns="http://www.w3.org/2000/svg"
 width="16.000000pt" height="16.000000pt" viewBox="0 0 16.000000 16.000000"
 preserveAspectRatio="xMidYMid meet">
<metadata>
Created by potrace 1.11, written by Peter Selinger 2001-2013
</metadata>
<g transform="translate(0.000000,16.000000) scale(0.006154,-0.006154)"
fill="#000000" stroke="none">
<path d="M34 2566 l-34 -34 0 -1232 0 -1232 34 -34 34 -34 1232 0 1232 0 34
34 34 34 0 1232 0 1232 -34 34 -34 34 -1232 0 -1232 0 -34 -34z m2048 -580
c88 -17 189 -53 252 -90 l46 -27 0 -95 c0 -74 -3 -93 -12 -88 -7 5 -34 23 -59
41 -178 127 -434 158 -614 74 -111 -51 -166 -116 -212 -247 -25 -74 -27 -90
-27 -239 0 -147 2 -167 27 -240 47 -140 129 -223 262 -267 125 -41 342 -29
448 24 l37 18 0 175 0 175 -145 0 -145 0 0 75 0 75 235 0 235 0 0 -285 0 -285
-46 -30 c-240 -152 -621 -160 -833 -19 -120 80 -210 212 -246 359 -9 36 -18
117 -22 180 -19 383 157 643 482 715 80 18 246 18 337 1z m-912 -81 l0 -75
-235 0 -235 0 0 -585 0 -585 -90 0 -90 0 0 585 0 585 -235 0 -235 0 0 75 0 75
560 0 560 0 0 -75z"/>
</g>
</svg>
